<?xml version="1.0" encoding="utf-8"?>
<!-- Generator: Adobe Illustrator 30.3.0, SVG Export Plug-In . SVG Version: 9.03 Build 0)  -->
<svg version="1.0" id="Layer_1" xmlns="http://www.w3.org/2000/svg" xmlns:xlink="http://www.w3.org/1999/xlink" x="0px" y="0px"
	 viewBox="0 0 358.6 76.2" style="enable-background:new 0 0 358.6 76.2;" xml:space="preserve">
<style type="text/css">
	.st0{fill:#0F172A;}
	.st1{fill:#10B981;}
	.st2{fill:#FFFFFF;}
</style>
<g>
	<g>
		<path class="st0" d="M102.5,56V8.3l8-1.4V36l16.2-15.1h9.1l-17.4,16.3L136.8,56h-10.4l-16-16.3V56H102.5z"/>
		<path class="st0" d="M153.6,56.7c-3.5,0-6.6-0.8-9.4-2.4c-2.8-1.6-5-3.8-6.7-6.5c-1.7-2.8-2.5-5.8-2.5-9.2c0-3.4,0.8-6.5,2.4-9.2
			c1.6-2.7,3.7-4.9,6.4-6.5c2.7-1.6,5.7-2.4,9-2.4c3.3,0,6.3,0.8,8.8,2.5c2.6,1.6,4.6,3.9,6.1,6.6c1.5,2.8,2.3,6,2.3,9.5v2.1h-26.9
			c0.4,1.7,1,3.3,2,4.6c1,1.3,2.3,2.4,3.8,3.1c1.5,0.8,3.2,1.1,5,1.1c1.6,0,3.2-0.2,4.7-0.8c1.5-0.5,2.7-1.2,3.7-2.2l5.2,4.9
			c-2.1,1.6-4.3,2.8-6.5,3.6C158.8,56.3,156.3,56.7,153.6,56.7z M143,35.3h19c-0.3-1.6-0.9-3.1-1.8-4.3c-0.9-1.2-2-2.2-3.3-2.9
			c-1.3-0.7-2.7-1.1-4.3-1.1c-1.6,0-3.1,0.3-4.4,1c-1.3,0.7-2.5,1.6-3.3,2.9C144,32.2,143.4,33.6,143,35.3z"/>
		<path class="st0" d="M192.4,56.6c-3.3,0-6.3-0.8-9-2.4c-2.7-1.6-4.9-3.8-6.4-6.5c-1.6-2.7-2.4-5.8-2.4-9.2c0-3.4,0.8-6.4,2.4-9.1
			c1.6-2.7,3.8-4.9,6.5-6.5c2.7-1.6,5.8-2.4,9.1-2.4c1.9,0,3.6,0.3,5.4,0.8c1.7,0.5,3.3,1.3,4.7,2.4V8.3l8-1.4V56h-7.9v-3.1
			C199.8,55.4,196.4,56.6,192.4,56.6z M193.5,49.7c1.9,0,3.6-0.3,5.1-1c1.6-0.7,2.9-1.6,4-2.9V31c-1.1-1.2-2.4-2.1-4-2.8
			c-1.6-0.7-3.3-1-5.1-1c-2.1,0-4,0.5-5.7,1.5c-1.7,1-3,2.3-4,4c-1,1.7-1.5,3.6-1.5,5.7c0,2.1,0.5,4,1.5,5.7c1,1.7,2.3,3,4,4
			C189.5,49.2,191.4,49.7,193.5,49.7z"/>
		<path class="st0" d="M229.5,56.7c-2.5,0-4.7-0.5-6.6-1.4c-1.9-0.9-3.4-2.2-4.5-3.8c-1.1-1.6-1.6-3.5-1.6-5.6c0-3.4,1.3-6,3.8-7.8
			c2.5-1.9,6-2.8,10.4-2.8c3.3,0,6.3,0.5,9.1,1.6v-3.1c0-2.3-0.7-4-2-5.1c-1.3-1.1-3.3-1.7-6-1.7c-1.5,0-3.2,0.2-4.9,0.7
			c-1.7,0.5-3.7,1.2-5.9,2.3l-2.9-6c2.7-1.2,5.2-2.1,7.6-2.8c2.4-0.6,4.8-0.9,7.3-0.9c4.6,0,8.2,1.1,10.8,3.3
			c2.5,2.2,3.8,5.4,3.8,9.4v23H240v-2.8c-1.5,1.2-3.1,2-4.8,2.6C233.4,56.4,231.5,56.7,229.5,56.7z M224.2,45.7c0,1.5,0.7,2.8,2,3.7
			c1.3,0.9,3.1,1.4,5.3,1.4c1.7,0,3.2-0.2,4.7-0.7c1.4-0.5,2.7-1.2,3.9-2.1v-5.6c-1.2-0.6-2.5-1-3.9-1.3c-1.3-0.3-2.8-0.4-4.4-0.4
			c-2.3,0-4.1,0.5-5.5,1.4C224.9,42.9,224.2,44.2,224.2,45.7z"/>
		<path class="st0" d="M259.3,15.9c-1.3,0-2.4-0.5-3.3-1.4c-0.9-0.9-1.4-2-1.4-3.3c0-1.3,0.5-2.4,1.4-3.3c0.9-0.9,2-1.4,3.3-1.4
			c1.3,0,2.4,0.5,3.3,1.4c0.9,0.9,1.4,2,1.4,3.3c0,1.3-0.5,2.4-1.4,3.3C261.8,15.5,260.7,15.9,259.3,15.9z M255.4,56V20.9h8V56
			H255.4z"/>
		<path class="st0" d="M271.1,70v-49h7.8v3.2c2.9-2.5,6.4-3.7,10.4-3.7c3.4,0,6.4,0.8,9.1,2.4c2.7,1.6,4.8,3.8,6.4,6.5
			c1.6,2.7,2.4,5.7,2.4,9.1c0,3.4-0.8,6.5-2.4,9.2c-1.6,2.7-3.7,4.9-6.4,6.5c-2.7,1.6-5.7,2.4-9.1,2.4c-1.9,0-3.6-0.3-5.4-0.9
			c-1.7-0.6-3.3-1.4-4.7-2.4V70H271.1z M288.1,49.7c2.1,0,4-0.5,5.7-1.5c1.7-1,3-2.3,4-4c1-1.7,1.5-3.6,1.5-5.7c0-2.1-0.5-4-1.5-5.7
			c-1-1.7-2.3-3-4-4c-1.7-1-3.6-1.5-5.7-1.5c-1.8,0-3.5,0.3-5.1,1c-1.6,0.7-2.9,1.6-4,2.8V46c1,1.2,2.4,2.1,4,2.8
			C284.6,49.4,286.3,49.7,288.1,49.7z"/>
		<path class="st0" d="M324.7,56.7c-2.5,0-4.7-0.5-6.6-1.4c-1.9-0.9-3.4-2.2-4.5-3.8c-1.1-1.6-1.6-3.5-1.6-5.6c0-3.4,1.3-6,3.8-7.8
			c2.5-1.9,6-2.8,10.4-2.8c3.3,0,6.3,0.5,9.1,1.6v-3.1c0-2.3-0.7-4-2-5.1c-1.3-1.1-3.3-1.7-6-1.7c-1.5,0-3.2,0.2-4.9,0.7
			c-1.7,0.5-3.7,1.2-5.9,2.3l-2.9-6c2.7-1.2,5.2-2.1,7.6-2.8c2.4-0.6,4.8-0.9,7.3-0.9c4.6,0,8.2,1.1,10.8,3.3
			c2.5,2.2,3.8,5.4,3.8,9.4v23h-7.8v-2.8c-1.5,1.2-3.1,2-4.8,2.6C328.6,56.4,326.7,56.7,324.7,56.7z M319.4,45.7
			c0,1.5,0.7,2.8,2,3.7c1.3,0.9,3.1,1.4,5.3,1.4c1.7,0,3.2-0.2,4.7-0.7c1.4-0.5,2.7-1.2,3.9-2.1v-5.6c-1.2-0.6-2.5-1-3.9-1.3
			c-1.3-0.3-2.8-0.4-4.4-0.4c-2.3,0-4.1,0.5-5.5,1.4C320.1,42.9,319.4,44.2,319.4,45.7z"/>
		<path class="st0" d="M350.6,56V8.3l8-1.4V56H350.6z"/>
	</g>
	<g>
		<path class="st0" d="M83.8,11.6C83.7,5.2,78.4,0,72,0H14.7C8.2,0,3,5.2,2.8,11.6L0,50.7l0,0.4C0,59.9,7.1,67,15.9,67h17.2l4.4,6.2
			c1.3,1.9,3.5,3,5.8,3c2.3,0,4.5-1.1,5.8-3l4.4-6.2h17.2c8.8,0,15.9-7.1,15.9-15.9v-0.2L83.8,11.6z"/>
		<g>
			<path class="st1" d="M78.2,11.8c0-3.4-2.8-6.2-6.2-6.2H14.7c-3.4,0-6.2,2.8-6.2,6.2L5.7,51.1c0,5.6,4.6,10.2,10.2,10.2h18.3
				c1.1,0,2.2,0.5,2.9,1.5l5.1,7.1c0.6,0.8,1.8,0.8,2.4,0l5.1-7.1c0.7-0.9,1.7-1.5,2.9-1.5h18.3c5.6,0,10.2-4.6,10.2-10.2L78.2,11.8
				z"/>
		</g>
		<path class="st2" d="M58.9,18.2c-2.2,0-3.9,1.8-3.9,3.9c0,1.5,0.8,2.7,2,3.4v8.3c0,4.1-3.3,7.4-7.4,7.4H36.4
			c-4.1,0-7.4-3.3-7.4-7.4v-8.3c1.1-0.7,1.9-1.9,1.9-3.4c0-2.2-1.8-3.9-3.9-3.9s-3.9,1.8-3.9,3.9c0,1.5,0.9,2.8,2.2,3.5v8.2
			c0,6.2,5,11.2,11.2,11.2h13.1c6.2,0,11.2-5,11.2-11.2v-8.2c1.2-0.7,2.1-1.9,2.1-3.4C62.8,19.9,61,18.2,58.9,18.2z"/>
	</g>
</g>
</svg>
