<?xml version="1.0" encoding="utf-8"?>
<!-- Generator: Adobe Illustrator 30.3.0, SVG Export Plug-In . SVG Version: 9.03 Build 0)  -->
<svg version="1.0" id="Layer_1" xmlns="http://www.w3.org/2000/svg" xmlns:xlink="http://www.w3.org/1999/xlink" x="0px" y="0px"
	 viewBox="0 0 77.5 68.1" style="enable-background:new 0 0 77.5 68.1;" xml:space="preserve">
<style type="text/css">
	.st0{fill:#0F172A;}
	.st1{fill:#10B981;}
	.st2{fill:#FFFFFF;}
</style>
<g>
	<path class="st0" d="M74.1,10.9C74,5.3,69.4,0.7,63.8,0.7l-50.1,0C8,0.7,3.4,5.3,3.3,10.9L0.9,45.1l0,0.4c0,7.7,6.2,13.9,13.9,13.9
		l15,0l3.9,5.4c1.2,1.6,3.1,2.6,5.1,2.6c2,0,3.9-1,5.1-2.6l3.9-5.4l15,0c7.7,0,13.9-6.2,13.9-13.9v-0.2L74.1,10.9z"/>
	<g>
		<path class="st1" d="M69.2,11.1c0-3-2.4-5.4-5.4-5.4l-50.1,0c-3,0-5.4,2.4-5.4,5.4L5.8,45.4c0,4.9,4,8.9,8.9,8.9l16,0
			c1,0,1.9,0.5,2.5,1.3l4.4,6.2c0.5,0.7,1.6,0.7,2.1,0l4.4-6.2c0.6-0.8,1.5-1.3,2.5-1.3l16,0c4.9,0,8.9-4,8.9-8.9L69.2,11.1z"/>
	</g>
	<path class="st2" d="M52.3,16.6c-1.9,0-3.4,1.5-3.4,3.4c0,1.3,0.7,2.4,1.7,3l0,7.2c0,3.6-2.9,6.5-6.5,6.5l-11.4,0
		c-3.6,0-6.5-2.9-6.5-6.5l0-7.3c1-0.6,1.7-1.7,1.7-2.9c0-1.9-1.5-3.4-3.4-3.4c-1.9,0-3.4,1.5-3.4,3.4c0,1.3,0.8,2.5,1.9,3l0,7.2
		c0,5.4,4.4,9.8,9.8,9.8l11.4,0c5.4,0,9.8-4.4,9.8-9.8l0-7.2c1.1-0.6,1.8-1.7,1.8-3C55.7,18.1,54.2,16.6,52.3,16.6z"/>
</g>
</svg>
