<?xml version="1.0" encoding="utf-8"?>
<!-- Generator: Adobe Illustrator 30.3.0, SVG Export Plug-In . SVG Version: 9.03 Build 0)  -->
<svg version="1.0" id="Layer_1" xmlns="http://www.w3.org/2000/svg" xmlns:xlink="http://www.w3.org/1999/xlink" x="0px" y="0px"
	 viewBox="0 0 188.2 124.4" style="enable-background:new 0 0 188.2 124.4;" xml:space="preserve">
<style type="text/css">
	.st0{fill:#0F172A;}
	.st1{fill:#10B981;}
	.st2{fill:#FFFFFF;}
</style>
<g>
	<g>
		<path class="st0" d="M0,114.2V79.1L5.9,78v21.4l11.9-11.1h6.7l-12.8,12l13.5,13.8h-7.6l-11.7-12v12H0z"/>
		<path class="st0" d="M37.5,114.6c-2.6,0-4.9-0.6-6.9-1.8c-2.1-1.2-3.7-2.8-4.9-4.8c-1.2-2-1.8-4.3-1.8-6.8s0.6-4.8,1.8-6.8
			c1.2-2,2.7-3.6,4.7-4.8c2-1.2,4.2-1.8,6.6-1.8c2.4,0,4.6,0.6,6.5,1.8c1.9,1.2,3.4,2.8,4.5,4.9c1.1,2.1,1.7,4.4,1.7,7v1.6H29.8
			c0.3,1.3,0.8,2.4,1.5,3.4c0.7,1,1.7,1.7,2.8,2.3c1.1,0.6,2.4,0.8,3.7,0.8c1.2,0,2.3-0.2,3.4-0.6c1.1-0.4,2-0.9,2.7-1.6l3.8,3.6
			c-1.5,1.2-3.1,2.1-4.8,2.7C41.4,114.3,39.6,114.6,37.5,114.6z M29.8,98.9h14c-0.2-1.2-0.7-2.3-1.4-3.2c-0.7-0.9-1.5-1.6-2.4-2.1
			c-1-0.5-2-0.8-3.1-0.8c-1.2,0-2.2,0.3-3.2,0.8c-1,0.5-1.8,1.2-2.5,2.1S30,97.7,29.8,98.9z"/>
		<path class="st0" d="M66.1,114.6c-2.4,0-4.6-0.6-6.6-1.8c-2-1.2-3.6-2.8-4.7-4.8s-1.7-4.3-1.7-6.8c0-2.5,0.6-4.7,1.8-6.7
			c1.2-2,2.8-3.6,4.8-4.8c2-1.2,4.2-1.8,6.7-1.8c1.4,0,2.7,0.2,3.9,0.6c1.3,0.4,2.4,1,3.5,1.7V79.1l5.9-1.1v36.1h-5.8v-2.3
			C71.6,113.7,69,114.6,66.1,114.6z M66.9,109.5c1.4,0,2.6-0.2,3.8-0.7c1.2-0.5,2.1-1.2,2.9-2.1V95.8c-0.8-0.9-1.8-1.5-3-2
			c-1.2-0.5-2.4-0.7-3.8-0.7c-1.5,0-2.9,0.4-4.2,1.1c-1.2,0.7-2.2,1.7-2.9,2.9c-0.7,1.2-1.1,2.6-1.1,4.2c0,1.6,0.4,3,1.1,4.2
			c0.7,1.2,1.7,2.2,2.9,3C64,109.1,65.4,109.5,66.9,109.5z"/>
		<path class="st0" d="M93.3,114.6c-1.8,0-3.5-0.3-4.9-1c-1.4-0.7-2.5-1.6-3.3-2.8c-0.8-1.2-1.2-2.5-1.2-4.1c0-2.5,0.9-4.4,2.8-5.8
			c1.9-1.4,4.4-2.1,7.6-2.1c2.4,0,4.6,0.4,6.7,1.2v-2.3c0-1.7-0.5-2.9-1.5-3.8c-1-0.8-2.4-1.3-4.4-1.3c-1.1,0-2.3,0.2-3.6,0.5
			c-1.3,0.3-2.7,0.9-4.4,1.7l-2.1-4.4c2-0.9,3.8-1.6,5.6-2c1.8-0.5,3.6-0.7,5.4-0.7c3.4,0,6,0.8,7.9,2.5c1.9,1.6,2.8,3.9,2.8,6.9
			v16.9h-5.8v-2.1c-1.1,0.9-2.3,1.5-3.6,1.9C96.2,114.4,94.8,114.6,93.3,114.6z M89.5,106.6c0,1.1,0.5,2,1.5,2.7c1,0.7,2.3,1,3.9,1
			c1.2,0,2.4-0.2,3.4-0.5s2-0.9,2.8-1.6v-4.1c-0.9-0.4-1.8-0.8-2.8-1c-1-0.2-2.1-0.3-3.2-0.3c-1.7,0-3.1,0.3-4,1
			C90,104.5,89.5,105.4,89.5,106.6z"/>
		<path class="st0" d="M115.3,84.7c-0.9,0-1.7-0.3-2.4-1c-0.7-0.7-1-1.5-1-2.5c0-1,0.3-1.8,1-2.5c0.7-0.7,1.5-1,2.4-1
			c1,0,1.8,0.3,2.5,1c0.7,0.7,1,1.5,1,2.5c0,1-0.3,1.8-1,2.5C117.1,84.4,116.3,84.7,115.3,84.7z M112.4,114.2V88.4h5.9v25.8H112.4z"
			/>
		<path class="st0" d="M123.9,124.4v-36h5.8v2.4c2.1-1.8,4.7-2.7,7.6-2.7c2.5,0,4.7,0.6,6.7,1.8c2,1.2,3.5,2.8,4.7,4.8
			c1.2,2,1.7,4.2,1.7,6.7c0,2.5-0.6,4.8-1.8,6.8c-1.2,2-2.7,3.6-4.7,4.8c-2,1.2-4.2,1.8-6.7,1.8c-1.4,0-2.7-0.2-3.9-0.6
			c-1.3-0.4-2.4-1-3.5-1.7v12.2H123.9z M136.5,109.5c1.6,0,3-0.4,4.2-1.1c1.2-0.7,2.2-1.7,2.9-2.9c0.7-1.2,1.1-2.6,1.1-4.2
			c0-1.6-0.4-3-1.1-4.2c-0.7-1.2-1.7-2.2-2.9-2.9c-1.2-0.7-2.6-1.1-4.2-1.1c-1.3,0-2.6,0.2-3.7,0.7c-1.2,0.5-2.1,1.2-2.9,2.1v10.9
			c0.8,0.9,1.7,1.5,2.9,2C133.9,109.3,135.1,109.5,136.5,109.5z"/>
		<path class="st0" d="M163.3,114.6c-1.8,0-3.5-0.3-4.9-1c-1.4-0.7-2.5-1.6-3.3-2.8c-0.8-1.2-1.2-2.5-1.2-4.1c0-2.5,0.9-4.4,2.8-5.8
			c1.9-1.4,4.4-2.1,7.6-2.1c2.4,0,4.6,0.4,6.7,1.2v-2.3c0-1.7-0.5-2.9-1.5-3.8c-1-0.8-2.4-1.3-4.4-1.3c-1.1,0-2.3,0.2-3.6,0.5
			c-1.3,0.3-2.7,0.9-4.4,1.7l-2.1-4.4c2-0.9,3.8-1.6,5.6-2c1.8-0.5,3.6-0.7,5.4-0.7c3.4,0,6,0.8,7.9,2.5c1.9,1.6,2.8,3.9,2.8,6.9
			v16.9H171v-2.1c-1.1,0.9-2.3,1.5-3.6,1.9C166.2,114.4,164.8,114.6,163.3,114.6z M159.5,106.6c0,1.1,0.5,2,1.5,2.7
			c1,0.7,2.3,1,3.9,1c1.2,0,2.4-0.2,3.4-0.5c1.1-0.4,2-0.9,2.8-1.6v-4.1c-0.9-0.4-1.8-0.8-2.8-1c-1-0.2-2.1-0.3-3.2-0.3
			c-1.7,0-3.1,0.3-4,1C160,104.5,159.5,105.4,159.5,106.6z"/>
		<path class="st0" d="M182.4,114.2V79.1l5.9-1.1v36.1H182.4z"/>
	</g>
	<g>
		<path class="st0" d="M130.3,13.4C130.2,7.6,125.5,3,119.7,3L68.5,3C62.7,3,58,7.6,57.9,13.4l-2.5,34.9l0,0.4
			c0,7.8,6.4,14.2,14.2,14.2l15.4,0l4,5.5c1.2,1.7,3.2,2.7,5.2,2.7c2.1,0,4-1,5.2-2.7l4-5.5l15.4,0c7.8,0,14.2-6.4,14.2-14.2v-0.2
			L130.3,13.4z"/>
		<g>
			<path class="st1" d="M125.2,13.6c0-3-2.5-5.5-5.5-5.5l-51.2,0c-3,0-5.5,2.5-5.5,5.5l-2.5,35.1c0,5,4.1,9.1,9.1,9.1l16.4,0
				c1,0,2,0.5,2.6,1.3l4.5,6.3c0.5,0.7,1.7,0.7,2.2,0l4.5-6.3c0.6-0.8,1.5-1.3,2.6-1.3l16.4,0c5,0,9.1-4.1,9.1-9.1L125.2,13.6z"/>
		</g>
		<path class="st2" d="M108,19.2c-1.9,0-3.5,1.6-3.5,3.5c0,1.3,0.7,2.4,1.8,3l0,7.4c0,3.7-3,6.6-6.6,6.6l-11.7,0
			c-3.7,0-6.6-3-6.6-6.6l0-7.4c1-0.6,1.7-1.7,1.7-3c0-1.9-1.6-3.5-3.5-3.5s-3.5,1.6-3.5,3.5c0,1.4,0.8,2.5,1.9,3.1l0,7.3
			c0,5.5,4.5,10,10,10l11.7,0c5.5,0,10-4.5,10-10l0-7.4c1.1-0.6,1.9-1.7,1.9-3.1C111.5,20.8,109.9,19.2,108,19.2z"/>
	</g>
</g>
</svg>
